<svg xmlns="http://www.w3.org/2000/svg" viewBox="0 0 512 512">
  <path d="M256 464c-114.69 0-208-93.31-208-208S141.31 48 256 48s208 93.31 208 208-93.31 208-208 208zm0-384c-104.86 0-192 87.14-192 192s87.14 192 192 192 192-87.14 192-192S360.86 80 256 80zm0 400c-70.69 0-128-57.31-128-128 0-70.69 57.31-128 128-128 70.69 0 128 57.31 128 128 0 70.69-57.31 128-128 128z"/>
  <path d="M224 256h-64c-17.67 0-32 14.33-32 32v128c0 17.67 14.33 32 32 32h64c17.67 0 32-14.33 32-32V288c0-17.67-14.33-32-32-32zM384 256h-64c-17.67 0-32 14.33-32 32v128c0 17.67 14.33 32 32 32h64c17.67 0 32-14.33 32-32V288c0-17.67-14.33-32-32-32z"/>
</svg>
