<svg xmlns="http://www.w3.org/2000/svg" viewBox="0 0 512 512">
  <path d="M256 48C141.6 48 48 141.6 48 256s93.6 208 208 208 208-93.6 208-208S370.4 48 256 48zm0 396.8c-105.6 0-191.2-85.6-191.2-191.2S150.4 64 256 64s191.2 85.6 191.2 191.2-85.6 191.2-191.2 191.2z"/>
  <path d="M408.8 280H303.2V224c0-22.4-18.4-40.8-40.8-40.8s-40.8 18.4-40.8 40.8v56.8H128.8c-22.4 0-40.8 18.4-40.8 40.8s18.4 40.8 40.8 40.8h105.6v56.8c0 22.4 18.4 40.8 40.8 40.8s40.8-18.4 40.8-40.8v-56.8h105.6c22.4 0 40.8-18.4 40.8-40.8s-18.4-40.8-40.8-40.8z"/>
</svg>
